<svg width="0" height="0" class="hidden">

  <symbol xmlns="http://www.w3.org/2000/svg" viewBox="0 0 32 32" id="bell">
    <path d="M21.332 22.668h-12V14c0-3.332 2.668-6 6-6 3.336 0 6 2.668 6 6M24 21.332V14c0-4.094-2.852-7.52-6.668-8.426v-.906a1.999 1.999 0 1 0-4 0v.906C9.508 6.48 6.668 9.906 6.668 14v7.332L4 24v1.332h22.668V24m-11.336 5.332A2.666 2.666 0 0 0 18 26.668h-5.332a2.662 2.662 0 0 0 2.664 2.664zm0 0"></path>
  </symbol>

  <symbol xmlns="http://www.w3.org/2000/svg" viewBox="0 0 32 32" id="camera-alt">
    <path d="M26.668 5.332h-4.227L20 2.668h-8L9.559 5.332H5.332A2.676 2.676 0 0 0 2.668 8v16c0 1.465 1.2 2.668 2.664 2.668h21.336A2.676 2.676 0 0 0 29.332 24V8c0-1.465-1.2-2.668-2.664-2.668zm0 18.668H5.332V8h5.402l2.438-2.668h5.656L21.266 8h5.402zM16 9.332A6.672 6.672 0 0 0 9.332 16 6.672 6.672 0 0 0 16 22.668 6.672 6.672 0 0 0 22.668 16 6.672 6.672 0 0 0 16 9.332zM16 20c-2.2 0-4-1.8-4-4s1.8-4 4-4 4 1.8 4 4-1.8 4-4 4zm0 0"></path>
  </symbol>

  <symbol xmlns="http://www.w3.org/2000/svg" viewBox="0 0 32 32" id="chat-left">
    <path d="M28 2c1.105 0 2 .895 2 2v16c0 1.105-.895 2-2 2H8.828A3.997 3.997 0 0 0 6 23.172l-4 4V4c0-1.105.895-2 2-2zM4 0C1.79 0 0 1.79 0 4v25.586a1 1 0 0 0 1.707.707l5.707-5.707A1.999 1.999 0 0 1 8.828 24H28c2.21 0 4-1.79 4-4V4c0-2.21-1.79-4-4-4zm0 0"></path>
  </symbol>

  <symbol xmlns="http://www.w3.org/2000/svg" viewBox="0 0 32 32" id="cog">
    <path d="M16 10.668A5.331 5.331 0 0 1 21.332 16 5.331 5.331 0 0 1 16 21.332 5.331 5.331 0 0 1 10.668 16 5.331 5.331 0 0 1 16 10.668m0 2.664a2.669 2.669 0 0 0 0 5.336 2.669 2.669 0 0 0 0-5.336m-2.668 16a.669.669 0 0 1-.664-.559l-.496-3.535c-.84-.332-1.559-.785-2.25-1.316l-3.32 1.344a.671.671 0 0 1-.817-.293l-2.664-4.614a.652.652 0 0 1 .16-.851l2.813-2.215L6 16l.094-1.332-2.813-2.176a.652.652 0 0 1-.16-.851l2.664-4.614a.658.658 0 0 1 .817-.293l3.32 1.332c.691-.52 1.41-.972 2.25-1.304l.496-3.535a.669.669 0 0 1 .664-.559h5.336c.332 0 .613.238.664.559l.496 3.535c.84.332 1.559.785 2.25 1.304l3.32-1.332a.658.658 0 0 1 .817.293l2.664 4.614a.652.652 0 0 1-.16.851l-2.813 2.176L26 16l-.094 1.332 2.813 2.176c.254.199.336.558.16.851l-2.664 4.614a.658.658 0 0 1-.817.293l-3.32-1.332c-.691.52-1.41.972-2.25 1.304l-.496 3.535a.669.669 0 0 1-.664.559h-5.336m1.668-24-.492 3.48a7.34 7.34 0 0 0-4.043 2.376L7.254 9.8l-1 1.734 2.812 2.067a7.418 7.418 0 0 0 0 4.796L6.238 20.48l1 1.735 3.242-1.387a7.265 7.265 0 0 0 4.012 2.344l.496 3.496h2.024l.496-3.48a7.38 7.38 0 0 0 4.012-2.36l3.242 1.387 1-1.735-2.828-2.066a7.465 7.465 0 0 0 0-4.812l2.812-2.067-1-1.734-3.21 1.386a7.228 7.228 0 0 0-4.044-2.359L17 5.332zm0 0"></path>
  </symbol>

  <symbol xmlns="http://www.w3.org/2000/svg" viewBox="0 0 32 32" id="cube">
    <path d="M28 22c0 .508-.281.945-.707 1.172l-10.531 5.922c-.215.16-.48.238-.762.238-.281 0-.547-.078-.762-.238L4.707 23.172A1.32 1.32 0 0 1 4 22V10c0-.508.281-.945.707-1.172l10.531-5.922c.215-.16.48-.238.762-.238.281 0 .547.078.762.238l10.531 5.922c.426.227.707.664.707 1.172v12M16 5.535 8.055 10 16 14.465 23.945 10 16 5.535m-9.332 15.68 8 4.504v-8.946l-8-4.492v8.934m18.664 0V12.28l-8 4.492v8.946zm0 0"></path>
  </symbol>

  <symbol xmlns="http://www.w3.org/2000/svg" viewBox="0 0 32 32" id="folder-open">
    <path d="M25.332 26.668h-20A2.666 2.666 0 0 1 2.668 24V8a2.656 2.656 0 0 1 2.664-2.668h8L16 8h9.332A2.669 2.669 0 0 1 28 10.668H5.332V24l2.856-10.668h22.757l-3.039 11.336a2.668 2.668 0 0 1-2.574 2zm0 0"></path>
  </symbol>

  <symbol xmlns="http://www.w3.org/2000/svg" viewBox="0 0 32 32" id="grid">
    <path d="M2 5a3 3 0 0 1 3-3h6a3 3 0 0 1 3 3v6a3 3 0 0 1-3 3H5a3 3 0 0 1-3-3zm3-1c-.55 0-1 .45-1 1v6c0 .55.45 1 1 1h6c.55 0 1-.45 1-1V5c0-.55-.45-1-1-1zm13 1a3 3 0 0 1 3-3h6a3 3 0 0 1 3 3v6a3 3 0 0 1-3 3h-6a3 3 0 0 1-3-3zm3-1c-.55 0-1 .45-1 1v6c0 .55.45 1 1 1h6c.55 0 1-.45 1-1V5c0-.55-.45-1-1-1zM2 21a3 3 0 0 1 3-3h6a3 3 0 0 1 3 3v6a3 3 0 0 1-3 3H5a3 3 0 0 1-3-3zm3-1c-.55 0-1 .45-1 1v6c0 .55.45 1 1 1h6c.55 0 1-.45 1-1v-6c0-.55-.45-1-1-1zm13 1a3 3 0 0 1 3-3h6a3 3 0 0 1 3 3v6a3 3 0 0 1-3 3h-6a3 3 0 0 1-3-3zm3-1c-.55 0-1 .45-1 1v6c0 .55.45 1 1 1h6c.55 0 1-.45 1-1v-6c0-.55-.45-1-1-1zm0 0"></path>
  </symbol>

  <symbol xmlns="http://www.w3.org/2000/svg" viewBox="0 0 32 32" id="magnify">
    <path d="M12.668 4a8.665 8.665 0 0 1 8.664 8.668 8.7 8.7 0 0 1-2.078 5.64l.36.36h1.054l6.664 6.664-2 2-6.664-6.664v-1.055l-.36-.36a8.7 8.7 0 0 1-5.64 2.079A8.665 8.665 0 0 1 4 12.668 8.666 8.666 0 0 1 12.668 4m0 2.668c-3.336 0-6 2.664-6 6 0 3.332 2.664 6 6 6 3.332 0 6-2.668 6-6 0-3.336-2.668-6-6-6zm0 0"></path>
  </symbol>

  <symbol xmlns="http://www.w3.org/2000/svg" viewBox="0 0 32 32" id="pencil-2">
    <path d="M27.762 4.238a5.346 5.346 0 0 0-3.797-1.57c-1.43 0-2.781.559-3.793 1.574L4.96 19.453a1.344 1.344 0 0 0-.352.617l-1.902 7.61c-.113.453.02.933.352 1.261a1.33 1.33 0 0 0 1.265.352l7.606-1.902c.234-.055.449-.18.62-.348l15.212-15.215a5.337 5.337 0 0 0 1.57-3.793 5.346 5.346 0 0 0-1.57-3.797zm-15.66 17.547 9.96-9.96.973.964-10.61 10.606zm-1.883-1.887-1.614-.324L19.215 8.97l.965.969zm-3.332 2.055 2.636.527.528 2.633-4.219 1.055zm14.21-14.867.962-.961c1.02-1.016 2.796-1.016 3.816 0 1.02 1.02 1.02 2.8 0 3.82l-.96.957zm0 0"></path>
  </symbol>

  <symbol xmlns="http://www.w3.org/2000/svg" viewBox="0 0 32 32" id="sine-wave">
    <path d="M22 28c-4 0-5.586-5.652-7.266-11.625C13.52 12.055 12 6.668 10 6.668c-4.52 0-4.668 9.238-4.668 9.332H2.668c0-.492.078-12 7.332-12 4 0 5.613 5.668 7.293 11.652 1.148 4.082 2.707 9.68 4.707 9.68 4.586 0 4.707-9.238 4.707-9.332h2.668c0 .492-.082 12-7.375 12zm0 0"></path>
  </symbol>

  <symbol xmlns="http://www.w3.org/2000/svg" viewBox="0 0 32 32" id="source">
    <path d="M26.668 8H16l-2.668-2.668h-8C3.867 5.332 2.68 6.535 2.68 8l-.012 16c0 1.465 1.2 2.668 2.664 2.668h21.336A2.676 2.676 0 0 0 29.332 24V10.668c0-1.469-1.2-2.668-2.664-2.668zm0 16H5.332V8h6.895l2.668 2.668h11.773zM24 16H8v-2.668h16zm-5.332 5.332H8v-2.664h10.668zm0 0"></path>
  </symbol>

  <symbol xmlns="http://www.w3.org/2000/svg" viewBox="0 0 32 32" id="user-friends-solid">
    <path d="M9 7c-3.3 0-6 2.7-6 6 0 1.984.977 3.75 2.469 4.844C2.832 19.152 1 21.864 1 25h2c0-3.324 2.676-6 6-6s6 2.676 6 6h2c0-3.324 2.676-6 6-6s6 2.676 6 6h2c0-3.137-1.832-5.848-4.469-7.156A6.006 6.006 0 0 0 29 13c0-3.3-2.7-6-6-6s-6 2.7-6 6c0 1.984.977 3.75 2.469 4.844A8.063 8.063 0 0 0 16 21.125a8.063 8.063 0 0 0-3.469-3.281A6.006 6.006 0 0 0 15 13c0-3.3-2.7-6-6-6zm0 2c2.223 0 4 1.777 4 4s-1.777 4-4 4-4-1.777-4-4 1.777-4 4-4zm14 0c2.223 0 4 1.777 4 4s-1.777 4-4 4-4-1.777-4-4 1.777-4 4-4zm0 0"></path>
  </symbol>

  <symbol xmlns="http://www.w3.org/2000/svg" viewBox="0 0 32 32" id="user-solid">
    <path d="M16 5c-3.855 0-7 3.145-7 7 0 2.41 1.23 4.55 3.094 5.813C8.527 19.343 6 22.883 6 27h2c0-4.43 3.57-8 8-8s8 3.57 8 8h2c0-4.117-2.527-7.656-6.094-9.188A7.024 7.024 0 0 0 23 12c0-3.855-3.145-7-7-7zm0 2c2.773 0 5 2.227 5 5s-2.227 5-5 5-5-2.227-5-5 2.227-5 5-5zm0 0"></path>
  </symbol>

  <symbol xmlns="http://www.w3.org/2000/svg" viewBox="0 0 32 32" id="view-dashboard-variant">
    <path d="M2.668 6.668v18.664h26.664V6.668H2.668m24 9.332h-5.336V9.332h5.336V16m-8-2.668h-5.336v-4h5.336v4M13.332 16h5.336v6.668h-5.336V16m-8-6.668h5.336v13.336H5.332V9.332m16 13.336v-4h5.336v4zm0 0"></path>
  </symbol>
  
</svg>











