<svg width="0" height="0" class="hidden">

  <symbol xmlns="http://www.w3.org/2000/svg" fill="#000000" viewBox="0 0 256 256" id="folder-simple-light">
    <rect width="256" height="256" fill="none"></rect>
    <path d="M224,88V200.9a7.1,7.1,0,0,1-7.1,7.1H40a8,8,0,0,1-8-8V64a8,8,0,0,1,8-8H93.3a8.1,8.1,0,0,1,4.8,1.6l27.8,20.8a8.1,8.1,0,0,0,4.8,1.6H216A8,8,0,0,1,224,88Z" fill="none" stroke="#000000" stroke-linecap="round" stroke-linejoin="round" stroke-width="12"></path>
  </symbol>

  <symbol xmlns="http://www.w3.org/2000/svg" fill="#000000" viewBox="0 0 256 256" id="table-light">
    <rect width="256" height="256" fill="none"></rect>
    <path d="M32,56H224a0,0,0,0,1,0,0V192a8,8,0,0,1-8,8H40a8,8,0,0,1-8-8V56A0,0,0,0,1,32,56Z" fill="none" stroke="#000000" stroke-linecap="round" stroke-linejoin="round" stroke-width="12"></path>
    <line x1="32" y1="104" x2="224" y2="104" fill="none" stroke="#000000" stroke-linecap="round" stroke-linejoin="round" stroke-width="12"></line>
    <line x1="32" y1="152" x2="224" y2="152" fill="none" stroke="#000000" stroke-linecap="round" stroke-linejoin="round" stroke-width="12"></line>
    <line x1="88" y1="104" x2="88" y2="200" fill="none" stroke="#000000" stroke-linecap="round" stroke-linejoin="round" stroke-width="12"></line>
  </symbol>

  <symbol xmlns="http://www.w3.org/2000/svg" fill="#000000" viewBox="0 0 256 256" id="squares-four-light">
    <rect width="256" height="256" fill="none"></rect>
    <rect x="48" y="48" width="64" height="64" fill="none" stroke="#000000" stroke-linecap="round" stroke-linejoin="round" stroke-width="12"></rect>
    <rect x="144" y="48" width="64" height="64" fill="none" stroke="#000000" stroke-linecap="round" stroke-linejoin="round" stroke-width="12"></rect>
    <rect x="48" y="144" width="64" height="64" fill="none" stroke="#000000" stroke-linecap="round" stroke-linejoin="round" stroke-width="12"></rect>
    <rect x="144" y="144" width="64" height="64" fill="none" stroke="#000000" stroke-linecap="round" stroke-linejoin="round" stroke-width="12"></rect>
  </symbol>

  <symbol xmlns="http://www.w3.org/2000/svg" fill="#000000" viewBox="0 0 256 256" id="cube-light">
    <rect width="256" height="256" fill="none"></rect>
    <path d="M224,177.3V78.7a8.1,8.1,0,0,0-4.1-7l-88-49.5a7.8,7.8,0,0,0-7.8,0l-88,49.5a8.1,8.1,0,0,0-4.1,7v98.6a8.1,8.1,0,0,0,4.1,7l88,49.5a7.8,7.8,0,0,0,7.8,0l88-49.5A8.1,8.1,0,0,0,224,177.3Z" fill="none" stroke="#000000" stroke-linecap="round" stroke-linejoin="round" stroke-width="12"></path>
    <polyline points="222.9 74.6 128.9 128 33.1 74.6" fill="none" stroke="#000000" stroke-linecap="round" stroke-linejoin="round" stroke-width="12"></polyline>
    <line x1="128.9" y1="128" x2="128" y2="234.8" fill="none" stroke="#000000" stroke-linecap="round" stroke-linejoin="round" stroke-width="12"></line>
  </symbol>

  <symbol xmlns="http://www.w3.org/2000/svg" fill="#000000" viewBox="0 0 256 256" id="wave-sine-light">
    <rect width="256" height="256" fill="none"></rect>
    <path d="M24,128c104-224,104,224,208,0" fill="none" stroke="#000000" stroke-linecap="round" stroke-linejoin="round" stroke-width="12"></path>
  </symbol>

  <symbol xmlns="http://www.w3.org/2000/svg" fill="#000000" viewBox="0 0 256 256" id="gear-light">
    <rect width="256" height="256" fill="none"></rect>
    <circle cx="128" cy="128" r="48" fill="none" stroke="#000000" stroke-linecap="round" stroke-linejoin="round" stroke-width="12"></circle>
    <path d="M183.7,65.1q3.8,3.5,7.2,7.2l27.3,3.9a103.2,103.2,0,0,1,10.2,24.6l-16.6,22.1s.3,6.8,0,10.2l16.6,22.1a102.2,102.2,0,0,1-10.2,24.6l-27.3,3.9s-4.7,4.9-7.2,7.2l-3.9,27.3a103.2,103.2,0,0,1-24.6,10.2l-22.1-16.6a57.9,57.9,0,0,1-10.2,0l-22.1,16.6a102.2,102.2,0,0,1-24.6-10.2l-3.9-27.3q-3.7-3.5-7.2-7.2l-27.3-3.9a103.2,103.2,0,0,1-10.2-24.6l16.6-22.1s-.3-6.8,0-10.2L27.6,100.8A102.2,102.2,0,0,1,37.8,76.2l27.3-3.9q3.5-3.7,7.2-7.2l3.9-27.3a103.2,103.2,0,0,1,24.6-10.2l22.1,16.6a57.9,57.9,0,0,1,10.2,0l22.1-16.6a102.2,102.2,0,0,1,24.6,10.2Z" fill="none" stroke="#000000" stroke-linecap="round" stroke-linejoin="round" stroke-width="12"></path>
  </symbol>

  <symbol xmlns="http://www.w3.org/2000/svg" fill="#000000" viewBox="0 0 256 256" id="chat-light">
    <rect width="256" height="256" fill="none"></rect>
    <path d="M77.4,201.9l-32.3,27A8,8,0,0,1,32,222.8V64a8,8,0,0,1,8-8H216a8,8,0,0,1,8,8V192a8,8,0,0,1-8,8H82.5A7.8,7.8,0,0,0,77.4,201.9Z" fill="none" stroke="#000000" stroke-linecap="round" stroke-linejoin="round" stroke-width="12"></path>
  </symbol>

  <symbol xmlns="http://www.w3.org/2000/svg" fill="#000000" viewBox="0 0 256 256" id="folder-open-light">
    <rect width="256" height="256" fill="none"></rect>
    <path d="M32,208V64a8,8,0,0,1,8-8H93.3a8.1,8.1,0,0,1,4.8,1.6l27.8,20.8a8.1,8.1,0,0,0,4.8,1.6H200a8,8,0,0,1,8,8v24" fill="none" stroke="#000000" stroke-linecap="round" stroke-linejoin="round" stroke-width="12"></path>
    <path d="M32,208l30.2-90.5a8,8,0,0,1,7.6-5.5H228.9a8,8,0,0,1,7.6,10.5L208,208Z" fill="none" stroke="#000000" stroke-linecap="round" stroke-linejoin="round" stroke-width="12"></path>
  </symbol>

  <symbol xmlns="http://www.w3.org/2000/svg" fill="#000000" viewBox="0 0 256 256" id="pencil-light">
    <rect width="256" height="256" fill="none"></rect>
    <path d="M92.7,216H48a8,8,0,0,1-8-8V163.3a7.9,7.9,0,0,1,2.3-5.6l120-120a8,8,0,0,1,11.4,0l44.6,44.6a8,8,0,0,1,0,11.4l-120,120A7.9,7.9,0,0,1,92.7,216Z" fill="none" stroke="#000000" stroke-linecap="round" stroke-linejoin="round" stroke-width="12"></path>
    <line x1="136" y1="64" x2="192" y2="120" fill="none" stroke="#000000" stroke-linecap="round" stroke-linejoin="round" stroke-width="12"></line>
    <line x1="164" y1="92" x2="68" y2="188" fill="none" stroke="#000000" stroke-linecap="round" stroke-linejoin="round" stroke-width="12"></line>
    <line x1="95.5" y1="215.5" x2="40.5" y2="160.5" fill="none" stroke="#000000" stroke-linecap="round" stroke-linejoin="round" stroke-width="12"></line>
  </symbol>

  <symbol xmlns="http://www.w3.org/2000/svg" fill="#000000" viewBox="0 0 256 256" id="folder-simple-minus-light">
    <rect width="256" height="256" fill="none"></rect>
    <line x1="104" y1="144" x2="152" y2="144" fill="none" stroke="#000000" stroke-linecap="round" stroke-linejoin="round" stroke-width="12"></line>
    <path d="M224,88V200.9a7.1,7.1,0,0,1-7.1,7.1H40a8,8,0,0,1-8-8V64a8,8,0,0,1,8-8H93.3a8.1,8.1,0,0,1,4.8,1.6l27.8,20.8a8.1,8.1,0,0,0,4.8,1.6H216A8,8,0,0,1,224,88Z" fill="none" stroke="#000000" stroke-linecap="round" stroke-linejoin="round" stroke-width="12"></path>
  </symbol>

  <symbol xmlns="http://www.w3.org/2000/svg" fill="#000000" viewBox="0 0 256 256" id="camera-light">
    <rect width="256" height="256" fill="none"></rect>
    <path d="M208,208H48a16,16,0,0,1-16-16V80A16,16,0,0,1,48,64H80L96,40h64l16,24h32a16,16,0,0,1,16,16V192A16,16,0,0,1,208,208Z" fill="none" stroke="#000000" stroke-linecap="round" stroke-linejoin="round" stroke-width="12"></path>
    <circle cx="128" cy="132" r="36" fill="none" stroke="#000000" stroke-linecap="round" stroke-linejoin="round" stroke-width="12"></circle>
  </symbol>

  <symbol xmlns="http://www.w3.org/2000/svg" fill="#000000" viewBox="0 0 256 256" id="bell-light">
    <rect width="256" height="256" fill="none"></rect>
    <path d="M56.2,104a71.9,71.9,0,0,1,72.3-72c39.6.3,71.3,33.2,71.3,72.9V112c0,35.8,7.5,56.6,14.1,68a8,8,0,0,1-6.9,12H49a8,8,0,0,1-6.9-12c6.6-11.4,14.1-32.2,14.1-68Z" fill="none" stroke="#000000" stroke-linecap="round" stroke-linejoin="round" stroke-width="12"></path>
    <path d="M96,192v8a32,32,0,0,0,64,0v-8" fill="none" stroke="#000000" stroke-linecap="round" stroke-linejoin="round" stroke-width="12"></path>
  </symbol>

  <symbol xmlns="http://www.w3.org/2000/svg" fill="#000000" viewBox="0 0 256 256" id="magnifying-glass-light">
    <rect width="256" height="256" fill="none"></rect>
    <circle cx="116" cy="116" r="84" fill="none" stroke="#000000" stroke-linecap="round" stroke-linejoin="round" stroke-width="12"></circle>
    <line x1="175.4" y1="175.4" x2="224" y2="224" fill="none" stroke="#000000" stroke-linecap="round" stroke-linejoin="round" stroke-width="12"></line>
  </symbol>

  <symbol xmlns="http://www.w3.org/2000/svg" fill="#000000" viewBox="0 0 256 256" id="bell">
    <rect width="256" height="256" fill="none"></rect>
    <path d="M56.2,104a71.9,71.9,0,0,1,72.3-72c39.6.3,71.3,33.2,71.3,72.9V112c0,35.8,7.5,56.6,14.1,68a8,8,0,0,1-6.9,12H49a8,8,0,0,1-6.9-12c6.6-11.4,14.1-32.2,14.1-68Z" fill="none" stroke="#000000" stroke-linecap="round" stroke-linejoin="round" stroke-width="16"></path>
    <path d="M96,192v8a32,32,0,0,0,64,0v-8" fill="none" stroke="#000000" stroke-linecap="round" stroke-linejoin="round" stroke-width="16"></path>
  </symbol>

  <symbol xmlns="http://www.w3.org/2000/svg" fill="#000000" viewBox="0 0 256 256" id="magnifying-glass">
    <rect width="256" height="256" fill="none"></rect>
    <circle cx="116" cy="116" r="84" fill="none" stroke="#000000" stroke-linecap="round" stroke-linejoin="round" stroke-width="16"></circle>
    <line x1="175.4" y1="175.4" x2="224" y2="224" fill="none" stroke="#000000" stroke-linecap="round" stroke-linejoin="round" stroke-width="16"></line>
  </symbol>

</svg>













<svg class="icon">
  <use xlink:href="#folder-simple-light"></use>
</svg>